<svg width="90" height="90" viewBox="0 0 90 90" fill="none" xmlns="http://www.w3.org/2000/svg">
<circle cx="45" cy="45" r="45" fill="#ECB94A"/>
<path d="M71.7812 48.4794C71.7812 38.9121 63.9429 31.1828 54.2813 31.1828H47.8479C47.8103 31.1829 47.7728 31.1784 47.7363 31.1696C48.2016 30.4801 48.4494 29.6684 48.4479 28.8382C48.4477 28.2801 48.3367 27.7276 48.1211 27.2122C47.9056 26.6969 47.5899 26.2288 47.192 25.8349C46.7941 25.441 46.3218 25.1289 45.8024 24.9166C45.2829 24.7043 44.7263 24.5959 44.1646 24.5977C43.5832 24.5971 43.0078 24.7141 42.4734 24.9415C41.9391 25.169 41.4569 25.5021 41.0563 25.9207C39.5398 25.5463 37.9522 25.564 36.4446 25.972L24.5446 29.1843H24.5379C23.7486 29.3982 23.0516 29.8634 22.5537 30.5085C22.0558 31.1535 21.7845 31.943 21.7813 32.7558V33.5953C21.7782 35.6278 22.358 37.6191 23.4529 39.336V42.1658C23.4529 42.5135 23.7529 42.8116 24.1029 42.8116H26.1363C26.3363 42.8116 26.5179 42.7155 26.6379 42.5698C27.2063 42.944 27.8113 43.2669 28.4479 43.5318V43.5351H27.2496C26.0763 43.5351 25.1146 44.4905 25.1146 45.6579C25.1146 46.8236 26.0763 47.779 27.2496 47.779H28.8229C29.7063 50.776 32.0746 53.2233 35.1146 54.0992V55.1523L34.4313 54.9072C34.4211 54.9062 34.4114 54.9028 34.4029 54.8973C34.395 54.8921 34.3858 54.8892 34.3763 54.889L34.3229 54.8708C33.3708 54.5304 32.3627 54.3715 31.3513 54.4022C27.0413 54.5463 23.5263 58.0549 23.4546 62.3567C23.4367 63.4317 23.6342 64.4995 24.0356 65.498C24.4371 66.4964 25.0344 67.4055 25.7928 68.1725C26.5513 68.9394 27.4557 69.5488 28.4535 69.9651C29.4512 70.3815 30.5224 70.5965 31.6046 70.5977H55.0246C59.5413 70.5977 63.3579 67.6619 64.6479 63.6019C68.9813 59.926 71.7812 54.1903 71.7812 48.4794ZM43.2796 28.4971C43.3517 28.3229 43.4744 28.174 43.632 28.0693C43.7896 27.9646 43.975 27.9089 44.1646 27.9093C44.7029 27.9093 45.1146 28.3299 45.1146 28.8382C45.1135 29.0012 45.0684 29.161 44.984 29.3008C44.8995 29.4406 44.7789 29.5553 44.6346 29.633L42.9846 30.5486L44.8046 33.0026L44.8213 33.0224C45.5446 33.9364 46.6546 34.4961 47.8479 34.4961H54.2813C62.1196 34.4961 68.4479 40.7584 68.4479 48.4794C68.4479 53.768 65.4879 59.1858 61.1313 62.1067L60.8146 62.3186C58.4202 62.8239 55.931 62.6501 53.6313 61.8169L38.4479 56.3527V52.8358C40.3413 52.6818 41.9663 51.9996 43.1663 50.8306C44.5396 49.4894 45.2713 47.5902 45.2713 45.3466C45.2713 45.127 45.1835 44.9164 45.0272 44.7612C44.8709 44.6059 44.6589 44.5187 44.4379 44.5187C44.2169 44.5187 44.0049 44.6059 43.8487 44.7612C43.6924 44.9164 43.6046 45.127 43.6046 45.3466C43.6046 47.2259 42.9996 48.6731 41.9979 49.6484C41.0529 50.5723 39.6813 51.1452 37.9346 51.2065L36.9646 51.1005C34.3646 50.8157 32.2196 48.6665 31.8413 46.0172H33.9646C35.5629 46.0172 36.9646 45.1843 37.7579 43.9425L37.7629 43.9325C37.8729 43.7587 37.9696 43.5765 38.0546 43.3861L38.7046 41.9323C39.0413 41.4654 39.2046 40.8726 39.2046 40.1788C39.2046 38.6489 38.0529 37.4352 36.8513 36.6619C35.6179 35.8704 34.0613 35.3604 32.7646 35.3604H30.5479C30.0911 35.3599 29.6448 35.2244 29.2658 34.9711C28.8868 34.7178 28.5922 34.3582 28.4196 33.9381L27.5463 31.8038L37.3179 29.1677C38.5655 28.8284 39.8914 28.9135 41.0846 29.4095L42.6513 30.0618L43.2796 28.4971ZM37.5363 40.1788C37.5363 40.7004 37.3979 40.9355 37.2696 41.0614H32.6646C29.3479 41.0614 26.5313 38.9419 25.5163 36.0045C26.0863 35.6568 26.5579 35.1601 26.8713 34.5491L26.8763 34.5656C27.1742 35.2902 27.6824 35.9101 28.3364 36.3466C28.9903 36.783 29.7602 37.0161 30.5479 37.0162H32.7646C33.6846 37.0162 34.9313 37.4004 35.9463 38.0528C36.9929 38.725 37.5363 39.5066 37.5363 40.1788Z" fill="black"/>
</svg>
