<svg width="27" height="27" viewBox="0 0 27 27" fill="none" xmlns="http://www.w3.org/2000/svg">
<g id="mingcute:pencil-line" clip-path="url(#clip0_2040_6659)">
<g id="Group">
<path id="Vector" d="M18.0309 3.39506C18.6367 2.78913 19.4503 2.43628 20.3066 2.40808C21.1629 2.37988 21.9979 2.67843 22.6423 3.24318L22.8043 3.39506L23.5997 4.19043C24.2053 4.79616 24.5579 5.60949 24.5861 6.46556C24.6143 7.32164 24.316 8.15641 23.7515 8.80068L23.5997 8.96268L10.9862 21.5773C10.8078 21.7556 10.5918 21.8917 10.3539 21.9756L10.1717 22.0284L5.16091 23.1849C4.98537 23.2255 4.80266 23.2234 4.62812 23.1787C4.45358 23.134 4.29231 23.0481 4.15785 22.9282C4.02339 22.8083 3.91966 22.6578 3.85538 22.4895C3.79109 22.3212 3.76813 22.14 3.78841 21.9609L3.81091 21.8338L4.96629 16.8219C5.02336 16.5761 5.13485 16.3462 5.29254 16.1492L5.41741 16.0086L18.0309 3.39506ZM17.2355 7.37193L7.12178 17.4857L6.40629 20.5884L9.50904 19.8718L19.6228 9.75806L17.2355 7.37193ZM21.2135 4.98581C21.0198 4.79211 20.7621 4.67575 20.4887 4.65856C20.2153 4.64137 19.945 4.72453 19.7285 4.89243L19.6228 4.98581L18.8263 5.78118L21.2135 8.16731L22.0089 7.37193C22.2026 7.17822 22.319 6.92048 22.3362 6.64708C22.3534 6.37367 22.2702 6.10339 22.1023 5.88693L22.0089 5.78118L21.2135 4.98581Z" fill="white"/>
</g>
</g>
<defs>
<clipPath id="clip0_2040_6659">
<rect width="27" height="27" fill="white"/>
</clipPath>
</defs>
</svg>
